<svg width="18" height="31" viewBox="0 0 18 31" fill="none" xmlns="http://www.w3.org/2000/svg">
<path d="M10.9922 30.9414H6.18796C5.3855 30.9414 4.73273 30.2886 4.73273 29.4862V18.65H1.92984C1.12738 18.65 0.474609 17.997 0.474609 17.1948V12.5514C0.474609 11.749 1.12738 11.0962 1.92984 11.0962H4.73273V8.771C4.73273 6.46547 5.45668 4.50395 6.82608 3.09885C8.20166 1.68733 10.124 0.941406 12.3854 0.941406L16.0493 0.947357C16.8504 0.94873 17.502 1.6015 17.502 2.40259V6.71381C17.502 7.51627 16.8495 8.16904 16.0473 8.16904L13.5804 8.16995C12.8281 8.16995 12.6365 8.32079 12.5955 8.36702C12.528 8.4437 12.4476 8.66045 12.4476 9.25897V11.096H15.8619C16.1189 11.096 16.3679 11.1594 16.5819 11.2789C17.0436 11.5368 17.3306 12.0246 17.3306 12.5517L17.3288 17.195C17.3288 17.997 16.676 18.6498 15.8736 18.6498H12.4476V29.4862C12.4476 30.2886 11.7946 30.9414 10.9922 30.9414ZM6.49146 29.1827H10.6887V17.8626C10.6887 17.3268 11.1247 16.891 11.6603 16.891H15.5701L15.5717 12.8549H11.6601C11.1245 12.8549 10.6887 12.4191 10.6887 11.8833V9.25897C10.6887 8.57187 10.7585 7.79047 11.2771 7.20316C11.9038 6.49316 12.8915 6.41122 13.5799 6.41122L15.7433 6.41031V2.70563L12.384 2.70013C8.74983 2.70013 6.49146 5.02649 6.49146 8.771V11.8833C6.49146 12.4189 6.05566 12.8549 5.52008 12.8549H2.23334V16.891H5.52008C6.05566 16.891 6.49146 17.3268 6.49146 17.8626V29.1827ZM16.0459 2.70609H16.0461H16.0459Z" fill="#94C31F"/>
</svg>
